<?xml version="1.0" encoding="UTF-8" standalone="no"?>
<svg xmlns:dc="http://purl.org/dc/elements/1.1/" xmlns:cc="http://creativecommons.org/ns#"
  xmlns:rdf="http://www.w3.org/1999/02/22-rdf-syntax-ns#" xmlns:svg="http://www.w3.org/2000/svg"
  xmlns="http://www.w3.org/2000/svg" viewBox="0 0 768 768" height="768" width="768" xml:space="preserve" id="svg2"
  version="1.1">
  <metadata id="metadata8">
    <rdf:RDF>
      <cc:Work rdf:about="">
        <dc:format>image/svg+xml</dc:format>
        <dc:type rdf:resource="http://purl.org/dc/dcmitype/StillImage" />
      </cc:Work>
    </rdf:RDF>
  </metadata>
  <defs id="defs6">
    <clipPath id="clipPath18" clipPathUnits="userSpaceOnUse">
      <path id="path16" d="M 0,576 H 576 V 0 H 0 Z" />
    </clipPath>
  </defs>
  <g transform="matrix(1.3333333,0,0,-1.3333333,0,768)" id="g10">
    <g id="g12">
      <g clip-path="url(#clipPath18)" id="g14">
        <g transform="translate(270.2339,177.6621)" id="g20">
          <path id="path22" style="fill:#373535;fill-opacity:1;fill-rule:nonzero;stroke:none"
            d="m 0,0 h -21.985 c 0,0 11.218,13.012 6.731,16.153 -4.488,3.145 -6.731,4.491 -6.731,4.491 0,0 -1.797,7.178 3.138,10.316 0,0 10.774,2.698 12.119,8.975 0,0 5.833,-7.178 8.074,-8.521 L 4.941,13.465 Z m 255.331,236.928 c 0,0 0,13.913 -8.978,14.363 0,0 -10.32,-3.14 -13.909,-2.694 -3.589,0.449 -4.04,3.143 -8.524,4.489 -4.487,1.346 -11.218,0.894 -11.218,0.894 L 188.47,242.317 c 0,0 -4.037,2.24 -6.28,1.794 -2.247,-0.445 -5.386,-7.183 -5.386,-7.183 l -4.49,-0.446 -3.139,-3.588 -6.733,-2.246 -5.386,-4.938 -22.884,-4.931 c 0,0 -8.523,2.24 -13.909,1.346 -5.388,-0.9 -9.425,-3.141 -15.258,-6.286 -5.833,-3.14 -18.115,-14.358 -21.259,-7.629 -3.139,6.734 -2.464,2.92 0.223,8.749 2.695,5.835 3.088,23.113 -3.646,28.049 -6.728,4.938 -12.264,6.881 -40.232,-0.149 l 2.387,4.489 c 0,0 1.199,4.484 0.905,6.581 -0.3,2.092 -2.397,5.083 -2.397,5.083 0,0 -5.085,12.266 -5.386,16.752 -0.297,4.489 0.598,6.283 0.598,6.283 0,0 1.199,0.897 1.499,2.695 0.298,1.796 0.597,13.46 -3.595,17.648 -4.184,4.192 -9.87,2.092 -18.844,5.087 -8.974,2.991 -19.144,4.188 -23.331,2.394 -4.059,-1.743 -5.874,-4.266 -10.099,-6.955 -3.289,-2.097 -13.389,-13.617 -10.995,-16.607 2.397,-2.988 8.53,-9.645 6.136,-12.039 -2.393,-2.393 -24.235,-21.241 -10.473,-36.198 l 1.199,-2.393 c 0,0 -3.59,-11.368 -9.275,-14.66 0,0 2.991,-5.083 7.779,-0.297 0,0 -0.301,-3.589 -2.698,-5.385 0,0 5.088,0.896 6.584,2.991 0,0 -1.496,-5.384 -3.886,-7.48 0,0 2.691,-1.795 5.382,1.197 0,0 3.247,2.965 5.377,5.209 -1.943,-4.593 -6.617,-13.14 -14.442,-12.916 0,0 -2.125,0 -4.73,1.223 -0.645,-0.348 0.152,-2.9 1.526,-3.663 1.374,-0.763 4.954,-1.06 9.158,-0.153 0,0 2.421,-2.282 -8.548,-2.595 -0.512,-0.014 0.764,-2.442 2.29,-2.442 1.477,0 9.246,-2.715 26.489,4.722 -4.316,-4.424 -11.224,-12.42 -9.338,-16.606 0,0 -20.943,-30.813 -16.155,-36.796 0,0 8.971,-7.48 2.39,-19.746 0,0 -2.694,-14.058 2.694,-19.744 0,0 -25.725,-6.58 -34.699,-27.818 0,0 -6.885,-19.748 -27.224,-24.836 0,0 -54.748,-28.717 -36.502,-59.53 0,0 -42.181,-2.393 -43.526,-2.393 -1.342,0 -10.768,-3.142 -10.768,-3.142 0,0 -32.312,-39.484 -34.101,-43.523 -1.797,-4.04 22.433,-30.964 29.617,-37.697 7.175,-6.728 21.666,-4.188 24.357,-4.188 2.695,0 174.43,11.817 253.854,13.612 0,0 34.549,-3.592 52.054,11.665 l 54.745,62.829 c 0,0 3.138,11.665 0.447,13.458 0,0 -9.421,-3.142 -13.912,-6.281 0,0 -10.32,-1.796 -13.909,-1.796 -3.59,0 -43.527,2.692 -43.527,2.692 0,0 0,8.079 -0.898,12.119 -0.895,4.033 -3.141,14.807 -4.487,18.844 -1.343,4.04 -5.389,6.28 -5.389,9.422 0,3.141 -7.623,47.116 -12.557,55.646 -4.938,8.524 -20.196,15.703 -20.196,15.703 0,0 6.281,13.014 2.244,26.924 0,0 -0.451,12.566 11.218,19.743 0,0 58.334,24.236 64.617,26.476 6.281,2.245 32.312,10.32 32.312,10.32 l 3.136,9.423 c 0,0 8.977,-3.589 14.362,0 l 12.564,6.286 c 0,0 9.876,-8.526 17.054,-0.451 0,0 4.935,7.629 3.139,13.014 0,0 13.465,5.835 13.014,9.869" />
        </g>
        <g transform="translate(253.1094,422.6699)" id="g24">
          <path id="path26" style="fill:#fcbe8a;fill-opacity:1;fill-rule:nonzero;stroke:none"
            d="m 0,0 c 0,0 11.439,8.078 21.314,7.178 0,0 9.199,-1.569 11.893,-3.364 0,0 -0.451,-2.69 -3.816,-0.896 0,0 -6.507,4.04 -15.705,-0.449 0,0 -4.935,-2.469 -6.057,-6.06 L 4.484,-4.485 C 4.484,-4.485 2.918,0 0,0" />
        </g>
        <g transform="translate(292.8203,420.874)" id="g28">
          <path id="path30" style="fill:#fcbe8a;fill-opacity:1;fill-rule:nonzero;stroke:none"
            d="m 0,0 c 0,0 -5.385,-1.569 -6.06,-2.244 -0.668,-0.671 -0.895,-3.137 -0.895,-3.137 0,0 -0.674,-4.937 -3.138,-5.837 -2.47,-0.895 -5.836,-5.16 -16.38,-4.711 0,0 -4.714,0.676 -6.059,4.711 l -3.363,-15.48 c 0,0 0.221,-3.589 14.804,-0.675 0,0 -2.019,-3.589 -9.645,-3.809 0,0 3.813,-18.629 12.34,-18.177 0,0 9.198,-1.795 17.05,19.072 l 4.935,5.609 c 0,0 -10.317,-23.113 -4.935,-24.008 0,0 9.876,-5.159 16.38,11.89 0,0 1.122,8.303 -1.122,23.338 0,0 -5.382,-6.96 -7.852,-7.855 l 2.019,6.509 -1.796,1.12 1.572,3.589 -1.572,0.897 2.918,8.977 -5.612,-7.629 -1.342,1.346 -6.511,-6.734 1.346,3.814 -4.26,-1.345 c 0,0 9.425,6.06 7.178,10.769" />
        </g>
        <g transform="translate(256.9258,403.2607)" id="g32">
          <path id="path34" style="fill:#fcbe8a;fill-opacity:1;fill-rule:nonzero;stroke:none"
            d="m 0,0 -1.796,-6.284 -2.244,3.595 c 0,0 3.142,2.019 4.04,2.689" />
        </g>
        <g transform="translate(309.5,438.8276)" id="g36">
          <path id="path38" style="fill:#f58735;fill-opacity:1;fill-rule:nonzero;stroke:none"
            d="m 0,0 c 0,0 -22.289,10.543 -47.64,7.629 0,0 -20.195,-3.369 -22.659,-5.614 0,0 6.954,9.2 7.625,10.098 0.674,0.896 2.992,4.036 2.992,4.036 0,0 10.697,3.815 15.855,3.815 l 12.117,-0.446 c 0,0 0.897,0.67 0,0.899 -0.899,0.221 -31.114,3.59 -31.785,4.71 -0.674,1.12 -5.015,4.486 -1.419,7.629 3.586,3.14 8.523,9.869 11.441,11.669 2.915,1.794 6.281,4.485 13.91,4.26 7.625,-0.226 18.62,-2.466 21.538,-3.589 2.915,-1.125 8.603,-0.225 11.518,-5.16 2.918,-4.939 5.389,-13.015 1.122,-17.724 C -7.217,20.185 -2.918,2.464 0,0" />
        </g>
        <g transform="translate(238.376,436.8027)" id="g40">
          <path id="path42" style="fill:#cc7231;fill-opacity:1;fill-rule:evenodd;stroke:none"
            d="m 0,0 c 0,0 -6.283,-11.29 1.496,-18.47 0,0 22.289,13.387 27.671,13.986 5.382,0.598 15.405,-2.619 17.799,-3.217 2.397,-0.599 19.147,-7.774 22.736,-4.786 3.593,2.992 5.309,6.729 0.525,10.921 C 65.438,2.623 45.767,8.303 32.983,8.08 22.091,7.89 3.874,4.029 0,0" />
        </g>
        <g transform="translate(253.1831,419.3047)" id="g44">
          <path id="path46" style="fill:#ffffff;fill-opacity:1;fill-rule:evenodd;stroke:none"
            d="m 0,0 c 0,0 -1.566,1.349 -3.816,0.446 -2.241,-0.892 -7.405,-3.137 -7.85,-5.16 -0.45,-2.015 0.445,-12.785 8.301,-12.785 0,0 8.303,2.016 7.629,10.77 0,0 -1.346,4.934 -4.264,6.729" />
        </g>
        <g transform="translate(266.4209,421.5483)" id="g48">
          <path id="path50" style="fill:#ffffff;fill-opacity:1;fill-rule:evenodd;stroke:none"
            d="m 0,0 c 0,0 -9.425,-6.284 -1.569,-13.238 0,0 14.357,-3.589 18.396,6.509 0,0 3.366,8.525 -5.832,9.869 C 10.995,3.14 3.142,3.365 0,0" />
        </g>
        <g transform="translate(234.7866,282.2178)" id="g52">
          <path id="path54" style="fill:#96989b;fill-opacity:1;fill-rule:evenodd;stroke:none"
            d="M 0,0 8.077,-21.545 9.87,-33.207 19.742,-49.363 23.334,-61.93 14.36,-74.493 c 0,0 -13.465,23.337 -22.436,18.847 0,0 -23.338,13.464 -41.286,5.388 0,0 -15.255,-6.283 -21.535,-10.767 l 9.869,8.974 c 0,0 18.844,5.379 25.127,13.458 6.283,8.08 6.283,13.462 8.975,17.048 C -24.232,-17.949 -9.875,0 0,0" />
        </g>
        <g transform="translate(343.3779,292.9863)" id="g56">
          <path id="path58" style="fill:#96989b;fill-opacity:1;fill-rule:evenodd;stroke:none"
            d="M 0,0 C 0,0 -11.668,16.154 -21.538,11.669 -31.41,7.183 -37.69,4.486 -38.589,-6.28 -39.49,-17.053 -39.49,-26.925 -39.49,-26.925 l 8.08,-47.566 c 0,0 11.665,12.566 21.541,8.076 9.869,-4.484 21.538,-7.172 21.538,-7.172 0,0 7.179,2.688 9.869,-0.904 2.694,-3.586 21.538,-17.947 21.538,-17.947 0,0 0,7.176 -1.796,12.565 -1.79,5.382 -6.277,16.155 -6.277,22.433 0,6.283 0,15.257 -5.385,27.828 -5.386,12.559 -8.08,13.458 -13.462,18.843 C 10.771,-5.385 0,0 0,0" />
        </g>
        <g transform="translate(305.5371,219.0928)" id="g60">
          <path id="path62" style="fill:#96989b;fill-opacity:1;fill-rule:evenodd;stroke:none"
            d="m 0,0 c 0,0 -4.787,13.167 -5.385,16.159 -0.597,2.991 1.793,2.991 -0.597,11.365 -2.395,8.376 -8.381,12.567 -9.577,16.757 -1.198,4.184 -2.987,17.345 -2.987,17.345 0,0 -10.173,2.998 -15.558,1.799 -5.386,-1.196 9.571,4.188 9.571,4.188 l -13.761,4.189 14.359,2.392 -1.796,8.971 c 0,0 -8.373,14.961 -9.572,18.55 -1.196,3.591 7.779,-4.786 7.779,-4.786 v 5.385 c 0,1.795 -0.598,13.761 -0.598,13.761 l 3.589,-4.189 1.196,18.547 c 0,0 -5.382,8.377 -11.966,8.974 -6.581,0.6 -7.178,0.6 -11.966,0 -4.785,-0.597 -6.431,3.443 -8.227,2.245 -1.793,-1.196 -16.891,-30.572 -10.908,-34.162 5.983,-3.589 2.992,-15.555 1.199,-19.743 -1.796,-4.192 1.793,-17.949 1.793,-17.949 0,0 4.778,-24.325 6.571,-26.716 1.796,-2.391 14.36,-31.113 14.36,-31.113 l 9.572,-16.75 c 0,0 16.734,8.897 32.909,4.781" />
        </g>
        <g transform="translate(305.3838,337.7085)" id="g64">
          <path id="path66" style="fill:#96989b;fill-opacity:1;fill-rule:evenodd;stroke:none"
            d="m 0,0 c 0,0 -2.991,8.376 -10.17,10.171 -7.178,1.795 -14.957,4.192 -15.555,2.394 -0.597,-1.796 1.196,-6.582 2.394,-10.171 1.195,-3.589 1.793,-14.957 2.391,-17.35 0.601,-2.394 4.19,-23.932 4.19,-25.726 0,-1.795 5.385,-19.743 5.385,-19.743 0,0 8.44,21.98 18.547,28.717 3.591,2.392 7.031,4.638 10.62,4.038 3.59,-0.598 11.071,0 13.462,-1.794 2.393,-1.795 11.819,-10.62 11.819,-10.62 0,0 4.784,16.751 2.991,24.529 -1.796,7.777 -2.991,17.351 2.391,18.546 5.385,1.197 14.957,3.591 17.35,4.788 2.395,1.195 34.102,15.855 39.491,17.053 5.385,1.196 33.504,12.865 36.496,13.462 2.991,0.598 11.966,6.581 11.966,10.77 0,4.188 -1.793,27.524 -6.581,28.721 0,0 -4.785,1.791 -2.394,-7.183 v -5.983 c 0,0 -1.793,8.377 -5.382,8.377 -3.593,0 -5.386,-4.189 -5.386,-4.189 0,0 -3.144,0.3 -4.934,-0.895 -1.799,-1.197 -13.762,-6.582 -16.156,-7.18 -2.397,-0.599 -20.193,-1.348 -20.193,-1.348 0,0 9.572,-9.722 8.975,-11.517 -0.601,-1.795 -4.791,-1.795 -10.768,2.991 -5.989,4.787 -19.298,0.748 -19.298,0.748 L 59.088,45.024 c 0,0 -15.407,-7.926 -18.402,-1.943 C 37.697,49.064 38.89,55.645 38.89,55.645 38.89,55.645 0,38.892 0,0" />
        </g>
        <g transform="translate(262.605,379.1436)" id="g68">
          <path id="path70" style="fill:#96989b;fill-opacity:1;fill-rule:evenodd;stroke:none"
            d="m 0,0 c 0,0 -22.436,-17.049 -0.895,-17.049 0,0 12.564,0.891 15.258,0 0,0 -12.564,8.074 -14.363,17.049" />
        </g>
        <g transform="translate(313.1631,376.7495)" id="g72">
          <path id="path74" style="fill:#96989b;fill-opacity:1;fill-rule:evenodd;stroke:none"
            d="m 0,0 c 0,0 15.855,11.368 17.354,14.958 1.493,3.588 2.388,6.58 -1.795,8.376 C 11.368,25.129 3.292,26.028 3.292,26.028 3.292,26.028 10.17,18.25 0,0" />
        </g>
        <g transform="translate(346.0693,398.5894)" id="g76">
          <path id="path78" style="fill:#96989b;fill-opacity:1;fill-rule:evenodd;stroke:none"
            d="m 0,0 c 0,0 13.164,20.639 -3.887,24.827 0,0 -12.863,0.9 -27.52,-2.691 l -0.902,-3.589 c 0,0 30.813,3.886 33.21,-2.092 0,0 1.796,-4.791 -0.901,-16.455" />
        </g>
        <g transform="translate(285.4917,359.625)" id="g80">
          <path id="path82" style="fill:#ffffff;fill-opacity:1;fill-rule:evenodd;stroke:none"
            d="m 0,0 c 0,0 13.689,-5.16 15.929,-10.32 0,0 3.142,14.804 9.201,20.864 C 25.13,10.544 12.791,-1.799 0,0" />
        </g>
        <g transform="translate(510.3066,402.1787)" id="g84">
          <path id="path86" style="fill:#f58735;fill-opacity:1;fill-rule:evenodd;stroke:none"
            d="m 0,0 c 0,0 0,-15.855 -14.359,-10.17 l -1.494,2.393 z" />
        </g>
        <g transform="translate(521.6748,414.4448)" id="g88">
          <path id="path90" style="fill:#f58735;fill-opacity:1;fill-rule:evenodd;stroke:none"
            d="m 0,0 -23.932,-12.864 c 0,0 -9.572,-7.777 -12.864,-9.275 -3.288,-1.494 -9.869,-3.888 -11.665,-3.888 -1.796,0 -3.89,1.494 -3.89,3.289 0,1.795 4.488,9.874 3.589,12.266 0,0 18.847,7.78 17.349,9.277 -1.493,1.492 -21.234,-4.786 -21.234,-4.786 l -6.584,9.869 c 0,0 21.835,11.367 26.626,10.472 l 8.373,-4.192 c 0,0 5.983,-2.394 6.881,-1.794 0.895,0.597 13.162,4.191 14.96,2.694 C -0.598,9.574 0.898,2.988 0,0" />
        </g>
        <g transform="translate(276.0508,209.0762)" id="g92">
          <path id="path94" style="fill:#f58735;fill-opacity:1;fill-rule:evenodd;stroke:none"
            d="m 0,0 15.702,5.235 c 0,0 -11.643,-9.07 -1.042,-11.071 7.926,-1.496 20.039,0.748 22.433,3.139 l 3.743,-10.023 c 0,0 -32.309,-4.187 -35.901,-8.974 z" />
        </g>
        <g transform="translate(301.0117,205.2734)" id="g96">
          <path id="path98" style="fill:#bc2f32;fill-opacity:1;fill-rule:evenodd;stroke:none"
            d="M 0,0 C 5.974,0.687 10.579,3.317 10.285,5.857 9.987,8.405 4.906,9.907 -1.067,9.211 -7.041,8.521 -11.646,5.896 -11.35,3.355 -11.062,0.812 -5.977,-0.697 0,0" />
        </g>
        <g transform="translate(375.9102,178.1133)" id="g100">
          <path id="path102" style="fill:#bc2f32;fill-opacity:1;fill-rule:evenodd;stroke:none"
            d="m 0,0 c 0,0 -0.895,5.382 -6.279,8.975 -5.386,3.586 -10.772,5.381 -10.772,5.381 0,0 -1.125,3.97 -3.531,7.179 -8.079,10.771 -33.207,5.388 -33.207,5.388 l 9.818,-27.824 z" />
        </g>
        <g transform="translate(235.9087,178.1133)" id="g104">
          <path id="path106" style="fill:#bc2f32;fill-opacity:1;fill-rule:evenodd;stroke:none"
            d="m 0,0 c 0,0 -2.694,8.975 -8.975,11.665 -6.283,2.691 -11.668,4.487 -15.257,3.593 -3.59,-0.902 -13.465,-5.389 -13.465,-5.389 L -50.261,-3.593 Z" />
        </g>
        <g transform="translate(202.7021,195.1611)" id="g108">
          <path id="path110" style="fill:#bc2f32;fill-opacity:1;fill-rule:evenodd;stroke:none"
            d="m 0,0 -19.745,4.487 c 0,0 -9.873,3.592 -14.357,0 -4.49,-3.586 -9.876,-12.56 -9.876,-12.56 l -9.872,-10.771 h 23.337 c 0,0 16.153,16.153 30.513,18.844" />
        </g>
        <g transform="translate(199.0166,201.7441)" id="g112">
          <path id="path114" style="fill:#bc2f32;fill-opacity:1;fill-rule:evenodd;stroke:none"
            d="m 0,0 c 0,0 -7.175,4.19 -2.991,7.779 0,0 14.36,10.765 -0.595,12.564 0,0 -17.354,-7.178 -19.15,-13.759 z" />
        </g>
        <g transform="translate(379.5576,184.8438)" id="g116">
          <path id="path118" style="fill:#bc2f32;fill-opacity:1;fill-rule:evenodd;stroke:none"
            d="M 0,0 C 0,0 3.589,8.076 1.796,9.869 0,11.666 -8.524,18.844 -8.524,18.844 L -14.36,9.422 C -14.36,9.422 -2.241,5.383 0,0" />
        </g>
        <g transform="translate(384.6582,213.1133)" id="g120">
          <path id="path122" style="fill:#373535;fill-opacity:1;fill-rule:evenodd;stroke:none"
            d="m 0,0 c 0,0 -17.214,25.13 -36.959,28.716 0,0 3.586,6.286 35.003,-17.949 z" />
        </g>
        <g transform="translate(184.3599,235.1016)" id="g124">
          <path id="path126" style="fill:#373535;fill-opacity:1;fill-rule:evenodd;stroke:none"
            d="m 0,0 c 0,0 18.393,8.076 45.771,1.793 0,0 6.73,2.915 14.81,-5.158 0,0 -1.346,11.441 -15.258,7.401 0,0 -15.929,5.607 -30.289,5.159 z" />
        </g>
        <g transform="translate(333.3936,333.8252)" id="g128">
          <path id="path130" style="fill:#373535;fill-opacity:1;fill-rule:evenodd;stroke:none"
            d="M 0,0 C 7.613,1.224 13.216,5.766 12.516,10.149 11.81,14.531 5.069,17.096 -2.544,15.876 -10.16,14.652 -15.76,10.111 -15.057,5.724 -14.35,1.342 -7.609,-1.219 0,0" />
        </g>
        <g transform="translate(345.2285,384.7524)" id="g132">
          <path id="path134" style="fill:#373535;fill-opacity:1;fill-rule:evenodd;stroke:none"
            d="m 0,0 c 0,0 3.816,-5.16 -17.047,-21.092 0,0 -6.511,-9.947 0.671,-4.561 12.4,9.302 29.045,21.72 26.249,20.044 z" />
        </g>
        <g transform="translate(451.8037,168.0137)" id="g136">
          <path id="path138" style="fill:#a13883;fill-opacity:1;fill-rule:evenodd;stroke:none"
            d="m 0,0 c 0,0 -47.566,-62.821 -74.487,-63.719 0,0 -259.667,-11.889 -273.73,-13.465 -14.056,-1.569 -48.465,26.93 -36.796,40.388 0,0 24.232,36.796 35.003,35.901 l 173.212,2.691 z" />
        </g>
        <g transform="translate(445.5205,159.2627)" id="g140">
          <path id="path142" style="fill:#373535;fill-opacity:1;fill-rule:evenodd;stroke:none"
            d="m 0,0 c 0,0 -19.742,-19.741 -52.051,-18.847 l -162.569,-3.589 c 0,0 -20.33,-2.591 -29.931,-17.949 0,0 -5.967,-12.563 -24.814,-14.356 l -99.489,-4.488 17.047,-13.467 86.932,4.49 c 0,0 25.128,-0.898 35.895,23.334 0,0 3.592,17.051 40.388,17.949 l 136.541,2.691 c 0,0 26.923,1.796 24.229,-6.277 l 8.08,1.793 z" />
        </g>
        <g transform="translate(277.2461,170.4814)" id="g144">
          <path id="path146" style="fill:#373535;fill-opacity:1;fill-rule:evenodd;stroke:none"
            d="m 0,0 2.244,-6.729 c 0,0 -10.324,-37.696 4.938,-34.551 0,0 10.323,1.796 10.767,3.138 0.45,1.349 6.283,-7.626 13.912,3.142 0,0 10.32,-4.935 14.807,4.04 0,0 8.972,18.393 5.389,32.309 l -3.145,7.625 z" />
        </g>
        <g transform="translate(281.062,183.0479)" id="g148">
          <path id="path150" style="fill:#cc7231;fill-opacity:1;fill-rule:evenodd;stroke:none"
            d="m 0,0 c 0,0 16.376,11.218 35.451,6.283 l 6.954,-8.526 c 0,0 -31.638,-15.93 -38.365,-10.097 0,0 -4.267,6.28 -4.04,12.34" />
        </g>
        <g transform="translate(285.1724,166.4414)" id="g152">
          <path id="path154" style="fill:#f58735;fill-opacity:1;fill-rule:evenodd;stroke:none"
            d="m 0,0 c 0,0 -0.87,-6.814 -0.595,-14.657 0.218,-6.334 -4.487,-19.445 -0.377,-18.55 0,0 4.488,-0.895 8.977,4.267 0,0 4.932,14.807 4.261,18.172 -0.675,3.366 -2.468,9.425 -2.468,9.425 l 2.468,0.224 c 0,0 2.694,-10.099 2.694,-10.771 0,-0.671 -3.369,-14.356 -3.369,-14.356 0,0 1.8,-10.994 6.735,-4.714 4.934,6.283 7.405,14.807 7.405,17.277 0,2.465 -1.796,12.117 -2.023,13.015 -0.22,0.895 1.573,0.895 1.573,0.895 0,0 4.036,-10.768 2.469,-15.708 -1.575,-4.935 -2.917,-8.297 -2.693,-9.419 0.224,-1.125 3.026,-2.996 4.935,-3.145 8.9,-0.675 10.994,23.187 10.994,26.556 0,3.362 -2.094,7.775 -2.094,7.775 l -1.495,3.142 c 0,0 -26.924,-10.771 -32.533,-8.974 z" />
        </g>
        <g transform="translate(433.8613,145.1426)" id="g156">
          <path id="path158" style="fill:#bf81aa;fill-opacity:1;fill-rule:evenodd;stroke:none"
            d="m 0,0 -17.911,-7.009 7.006,-5.455 z" />
        </g>
        <g transform="translate(190.0425,96.1738)" id="g160">
          <path id="path162" style="fill:#bf81aa;fill-opacity:1;fill-rule:evenodd;stroke:none"
            d="m 0,0 -93.631,-5.581 -9.268,4.829 99.876,6.255 c 0,0 16.446,5.171 26.044,19.81 C 23.021,25.313 13.276,2.109 0,0" />
        </g>
      </g>
    </g>
  </g>
</svg>